<svg width="29" height="15" viewBox="0 0 29 15" xmlns="http://www.w3.org/2000/svg">
<g clip-path="url(#clip0_113_2810)">
<path fill-rule="evenodd" clip-rule="evenodd" d="M14.2922 14.393H15.9337C15.9337 14.393 16.4297 14.3428 16.6827 14.0916C16.9158 13.8608 16.9083 13.4277 16.9083 13.4277C16.9083 13.4277 16.8763 11.3998 17.8986 11.1012C18.9064 10.8071 20.2005 13.0611 21.5721 13.9279C22.6093 14.5837 23.3975 14.4399 23.3975 14.4399L27.0651 14.393C27.0651 14.393 28.9837 14.2841 28.0739 12.8954C27.9994 12.7817 27.5442 11.8679 25.3471 9.99045C23.0474 8.02537 23.3554 8.34321 26.1256 4.94406C27.8126 2.87395 28.487 1.61012 28.2764 1.06883C28.0754 0.553277 26.8346 0.689545 26.8346 0.689545L22.7052 0.713229C22.7052 0.713229 22.399 0.674785 22.172 0.799723C21.9502 0.922266 21.8074 1.20784 21.8074 1.20784C21.8074 1.20784 21.1538 2.80977 20.2821 4.17211C18.4433 7.04678 17.7081 7.19849 17.4076 7.02001C16.7085 6.604 16.883 5.34875 16.883 4.457C16.883 1.67122 17.3419 0.509685 15.9893 0.209003C15.5404 0.109119 15.21 0.0432156 14.0622 0.0325755C12.5887 0.0185018 11.3416 0.0366934 10.6354 0.355225C10.1657 0.567006 9.80326 1.03897 10.024 1.06608C10.2969 1.09973 10.9151 1.21952 11.2428 1.63038C11.6659 2.16035 11.651 3.35073 11.651 3.35073C11.651 3.35073 11.8941 6.63008 11.0832 7.03751C10.5266 7.31691 9.763 6.74644 8.12365 4.13846C7.28366 2.80256 6.64947 1.32592 6.64947 1.32592C6.64947 1.32592 6.52719 1.04995 6.30908 0.902357C6.04436 0.723527 5.67451 0.666549 5.67451 0.666549L1.75044 0.690231C1.75044 0.690231 1.16137 0.705335 0.945123 0.94114C0.752741 1.15086 0.929837 1.58473 0.929837 1.58473C0.929837 1.58473 4.00199 8.20179 7.48052 11.5364C10.6701 14.5937 14.2922 14.393 14.2922 14.393Z" />
</g>
<defs>
<clipPath id="clip0_113_2810">
<rect width="29" height="15"/>
</clipPath>
</defs>
</svg>
